<?xml version="1.0" encoding="UTF-8"?>
<svg id="Layer_2" data-name="Layer 2" xmlns="http://www.w3.org/2000/svg" viewBox="0 0 114.4 250.98">
  <defs>
    <style>
      .cls-1 {
        fill: #fff;
      }

      .cls-2 {
        fill: #2ca15b;
      }
    </style>
  </defs>
  <g id="Layer_1-2" data-name="Layer 1">
    <g>
      <g>
        <rect class="cls-2" x="51.28" y="25.29" width="11.72" height="10.75"/>
        <rect class="cls-2" x="51.28" y="43.15" width="11.72" height="207.83"/>
      </g>
      <g>
        <path class="cls-1" d="m37.23,24.64v1.33h0v71.79h-.05c-.73,12.53-11.75,22.6-25.45,23.27v.04H0V0h11.72v.04c13.71.67,24.74,10.74,25.46,23.28h.04v1.27s0,.03,0,.05h0ZM11.72,10.78v99.51c7.7-.67,13.75-6.6,13.78-13.8V24.41c-.13-7.13-6.14-12.97-13.78-13.63Z"/>
        <path class="cls-1" d="m114.4,110.35v10.72h-37.23v-10.72h25.5v-11.76h-25.5v-55.44h8.83s16.68,0,16.68,0h0s11.72,0,11.72,0v33.91h-11.72v-23.19h-13.78v34.01h25.51v10.71h0v11.76h0Z"/>
        <path class="cls-1" d="m37.23,240.25v10.72h0v.02h-11.72v-.02h-13.79v.02H0v-121.06h11.72v.03h12.27v-.03h11.72v38.28h0v.25h-1.45c-4.49,0-8.52,1.79-11.31,4.63h14.25v8.02h.02v59.16h0Zm-13.24-99.58h-12.27v28.23c2.96-4.12,7.23-7.39,12.27-9.3v-18.94Zm1.51,43.12h-13.79v56.46h13.79v-56.46Z"/>
        <path class="cls-1" d="m88.89,206.25v34.02h13.78v-23.19h11.72v33.9s-10.27,0-10.27,0h-18.13s-8.83,0-8.83,0v-55.44h25.5v-11.76h-25.5v-10.72h37.23v33.19h-25.51Z"/>
      </g>
    </g>
  </g>
</svg>