<?xml version="1.0" encoding="UTF-8"?>
<svg id="Layer_2" data-name="Layer 2" xmlns="http://www.w3.org/2000/svg" viewBox="0 0 1920 658">
  <defs>
    <style>
      .cls-1 {
        fill: #020000;
      }

      .cls-2 {
        fill: #353233;
      }

      .cls-3 {
        opacity: .27;
      }
    </style>
  </defs>
  <g id="Layer_1-2" data-name="Layer 1">
    <rect class="cls-1" width="1920" height="658"/>
    <g class="cls-3">
      <g>
        <g>
          <rect class="cls-2" x="1565.38" y="101.4" width="33.55" height="30.78"/>
          <rect class="cls-2" x="1565.38" y="152.5" width="33.55" height="505.34"/>
        </g>
        <g>
          <path class="cls-2" d="m1525.16,99.54v3.79h0v205.45h-.14c-2.1,35.85-33.62,64.68-72.85,66.59v.11h-33.55V29.02h33.55v.12c39.24,1.9,70.79,30.75,72.88,66.62h.11v3.64c0,.05,0,.1,0,.15h0Zm-72.99-39.68v284.79c22.04-1.92,39.34-18.88,39.44-39.5V98.88c-.37-20.41-17.56-37.13-39.44-39.02Z"/>
          <path class="cls-2" d="m1746,344.81v30.67h-106.54v-30.67h72.98v-33.65h-72.98v-158.66h25.27s47.73,0,47.73,0h0s33.55,0,33.55,0v97.03h-33.55v-66.36h-39.45v97.34h73v30.66h-.01v33.65h.02Z"/>
          <path class="cls-2" d="m1452.17,657.84v-102.87h39.45v102.87h33.55v-110.59h-.05v-22.94h-40.79c7.99-8.1,19.52-13.24,32.36-13.24h4.15v-.71h0v-109.56h-33.55v.1h-35.13v-.1h-33.54v257.03h33.54Zm0-226.27h35.13v54.19c-14.43,5.46-26.66,14.81-35.13,26.61v-80.8Z"/>
          <rect class="cls-2" x="1712.45" y="650.24" width="33.55" height="7.6"/>
          <polygon class="cls-2" points="1639.46 588.59 1639.46 657.84 1673 657.84 1673 619.26 1746 619.26 1746 524.28 1639.46 524.28 1639.46 554.95 1712.44 554.95 1712.44 588.59 1639.46 588.59"/>
        </g>
      </g>
    </g>
  </g>
</svg>